<?xml version="1.0" encoding="UTF-8" ?>
<!DOCTYPE svg PUBLIC "-//W3C//DTD SVG 1.1//EN" "http://www.w3.org/Graphics/SVG/1.1/DTD/svg11.dtd">
<svg width="1024pt" height="654pt" viewBox="0 0 1024 654" version="1.1" xmlns="http://www.w3.org/2000/svg">
<g id="#26aae1ff">
<path fill="#26aae1" opacity="1.00" d=" M 379.29 69.01 C 386.98 47.25 408.81 31.30 431.97 31.17 C 506.29 31.16 580.61 31.17 654.92 31.17 C 663.00 31.25 671.27 30.58 679.11 32.98 C 698.17 37.83 714.06 53.15 719.64 72.00 C 723.07 82.31 722.04 93.29 722.19 103.96 C 722.12 128.82 722.34 153.69 722.08 178.55 C 716.67 176.66 712.00 172.53 706.02 172.51 C 700.93 172.02 696.39 174.62 692.14 177.03 C 692.14 148.01 692.13 118.99 692.14 89.97 C 692.14 84.44 690.86 78.82 687.80 74.16 C 682.86 66.09 673.48 60.91 664.00 61.22 C 589.00 61.24 514.00 61.23 438.99 61.23 C 433.63 61.15 428.07 60.94 423.07 63.24 C 413.10 67.17 406.16 77.30 405.80 87.98 C 405.75 93.45 405.84 99.00 405.30 104.39 C 421.85 110.15 434.32 126.34 434.73 143.99 C 434.80 161.56 434.82 179.13 434.72 196.70 C 406.77 207.94 374.44 208.32 346.67 196.36 C 346.82 182.56 346.69 168.75 346.74 154.94 C 346.80 149.33 346.39 143.65 347.48 138.10 C 350.10 122.62 361.86 109.23 376.73 104.30 C 376.40 102.89 376.04 101.48 375.84 100.04 C 375.45 89.63 375.44 78.88 379.29 69.01 Z" />
<path fill="#26aae1" opacity="1.00" d=" M 703.73 185.68 C 705.88 184.65 707.99 186.27 709.84 187.21 C 713.64 189.57 717.89 191.08 722.21 192.17 C 722.16 198.20 722.22 204.24 722.16 210.28 C 725.71 210.32 729.26 210.35 732.82 210.31 L 732.30 209.33 C 733.28 211.02 734.45 212.74 734.59 214.75 C 734.15 216.90 733.08 218.84 732.00 220.73 C 732.17 220.33 732.51 219.55 732.68 219.15 C 729.18 219.09 725.68 219.14 722.19 219.14 C 722.20 225.12 722.17 231.10 722.21 237.08 C 718.20 238.18 714.24 239.58 710.66 241.71 C 708.27 243.00 705.40 244.84 702.69 243.28 C 699.21 241.43 695.83 239.36 692.11 238.02 C 691.95 231.72 692.58 225.37 691.80 219.10 C 687.19 218.58 682.55 219.36 677.94 218.81 L 677.12 218.76 C 675.87 215.97 675.51 212.64 677.80 210.27 C 682.58 210.36 687.36 210.33 692.14 210.30 C 692.14 203.96 692.13 197.62 692.15 191.27 C 696.18 189.77 699.79 187.38 703.73 185.68 M 702.13 205.13 C 694.83 207.10 692.79 217.73 698.74 222.32 C 703.97 227.23 713.59 224.14 714.99 217.11 C 717.25 209.83 709.23 202.36 702.13 205.13 Z" />
<path fill="#26aae1" opacity="1.00" d=" M 705.05 256.94 C 711.41 257.18 716.42 252.72 722.14 250.72 C 722.24 260.47 722.16 270.22 722.22 279.97 C 722.09 287.53 715.53 294.21 707.97 294.43 C 699.94 295.10 692.00 288.14 692.16 279.98 C 692.09 270.76 692.18 261.54 692.13 252.32 C 696.11 254.58 700.29 257.12 705.05 256.94 Z" />
<path fill="#26aae1" opacity="1.00" d=" M 337.50 264.30 C 347.38 271.46 357.06 278.90 366.91 286.11 C 360.23 289.13 353.46 291.93 346.71 294.79 C 343.62 284.63 340.61 274.45 337.50 264.30 Z" />
<path fill="#26aae1" opacity="1.00" d=" M 771.36 458.33 C 776.37 458.30 781.39 458.34 786.41 458.30 C 791.70 458.21 797.26 458.01 802.09 460.57 C 802.54 460.93 803.00 461.31 803.45 461.72 C 805.23 463.53 806.92 465.43 808.34 467.56 C 808.48 467.95 808.76 468.74 808.90 469.14 L 809.30 471.02 C 809.90 474.48 809.53 478.00 809.18 481.46 C 806.71 484.56 804.08 487.52 801.27 490.32 C 799.86 490.08 798.38 490.54 797.52 491.71 L 797.10 492.13 C 795.58 492.99 794.05 493.81 792.57 494.71 C 791.51 495.33 790.48 495.99 789.47 496.65 C 779.66 502.72 769.88 508.82 760.15 515.01 C 759.55 515.32 758.36 515.93 757.76 516.24 C 759.30 507.74 762.69 499.64 763.84 491.08 C 762.15 487.85 758.20 486.78 754.82 487.43 C 753.00 487.59 751.23 487.12 749.56 486.48 C 749.51 486.07 749.39 485.25 749.34 484.84 C 748.88 484.58 747.96 484.06 747.51 483.80 C 754.34 479.64 763.23 479.07 768.81 472.84 C 771.11 470.82 771.96 467.83 771.82 464.85 C 771.87 462.66 771.68 460.48 771.36 458.33 Z" />
<path fill="#26aae1" opacity="1.00" d=" M 652.09 476.90 C 654.85 475.26 657.62 473.64 660.28 471.83 C 663.29 476.33 667.64 479.57 672.31 482.18 C 670.91 483.08 669.29 483.83 668.31 485.22 C 668.30 488.55 668.94 491.84 669.38 495.13 C 668.52 493.82 667.63 492.55 666.74 491.28 C 654.41 490.96 642.07 491.60 629.76 490.92 C 632.57 488.97 635.50 487.18 638.42 485.39 C 641.01 483.78 643.60 482.16 646.19 480.55 C 648.15 479.32 650.10 478.08 652.09 476.90 Z" />
</g>
<g id="#1b75bcff">
<path fill="#1b75bc" opacity="1.00" d=" M 692.14 177.03 C 696.39 174.62 700.93 172.02 706.02 172.51 C 712.00 172.53 716.67 176.66 722.08 178.55 C 726.89 180.14 732.26 181.26 735.71 185.32 C 740.29 190.06 740.00 197.20 743.41 202.58 C 745.80 206.62 748.01 211.12 747.52 215.96 C 747.23 222.51 741.98 227.26 740.64 233.49 C 739.49 238.06 737.73 242.87 733.83 245.82 C 730.47 248.56 726.13 249.35 722.14 250.72 C 716.42 252.72 711.41 257.18 705.05 256.94 C 700.29 257.12 696.11 254.58 692.13 252.32 C 686.71 249.35 679.74 249.39 675.34 244.60 C 670.15 239.75 670.55 231.99 666.81 226.29 C 664.11 221.78 661.82 216.32 663.37 211.01 C 664.44 205.58 668.66 201.46 669.78 196.05 C 671.01 191.25 672.88 186.17 677.09 183.19 C 681.49 179.77 687.39 179.73 692.14 177.03 M 703.73 185.68 C 699.79 187.38 696.18 189.77 692.15 191.27 C 688.98 192.12 684.38 192.28 683.34 196.07 C 681.94 200.97 680.41 205.85 677.80 210.27 C 675.51 212.64 675.87 215.97 677.12 218.76 L 677.94 218.81 C 679.97 223.39 682.00 227.97 683.19 232.86 C 683.98 236.99 688.81 237.19 692.11 238.02 C 695.83 239.36 699.21 241.43 702.69 243.28 C 705.40 244.84 708.27 243.00 710.66 241.71 C 714.24 239.58 718.20 238.18 722.21 237.08 C 724.03 236.53 726.29 235.96 726.92 233.89 C 728.50 229.46 729.29 224.69 732.00 220.73 C 733.08 218.84 734.15 216.90 734.59 214.75 C 734.45 212.74 733.28 211.02 732.30 209.33 C 729.66 205.22 728.56 200.45 727.08 195.86 C 726.55 193.54 724.17 192.84 722.21 192.17 C 717.89 191.08 713.64 189.57 709.84 187.21 C 707.99 186.27 705.88 184.65 703.73 185.68 Z" />
</g>
<g id="#f4fafcff">
<path fill="#f4fafc" opacity="1.00" d=" M 702.13 205.13 C 709.23 202.36 717.25 209.83 714.99 217.11 C 713.59 224.14 703.97 227.23 698.74 222.32 C 692.79 217.73 694.83 207.10 702.13 205.13 Z" />
</g>
<g id="#d1d3d4ff">
<path fill="#d1d3d4" opacity="1.00" d=" M 376.40 229.40 C 376.62 222.35 382.72 215.68 390.02 216.14 C 397.29 215.75 403.45 222.30 403.51 229.40 C 394.47 229.45 385.44 229.44 376.40 229.40 Z" />
</g>
<g id="#006838ff">
<path fill="#006838" opacity="1.00" d=" M 351.37 242.87 C 356.02 239.58 360.99 236.77 365.53 233.33 C 369.26 237.83 372.17 242.95 375.27 247.89 C 370.31 250.85 365.86 254.78 360.51 257.00 C 357.62 252.19 354.45 247.55 351.37 242.87 Z" />
<path fill="#006838" opacity="1.00" d=" M 630.85 414.88 C 633.12 415.05 633.93 417.29 634.91 418.99 C 638.19 425.20 641.36 431.49 643.95 438.04 C 644.66 439.61 644.62 441.35 644.67 443.05 C 641.92 439.54 641.01 435.03 638.99 431.11 C 636.68 425.50 633.27 420.43 630.85 414.88 Z" />
<path fill="#006838" opacity="1.00" d=" M 802.09 460.57 C 803.39 447.76 803.83 434.85 802.36 422.03 C 804.86 435.11 803.69 448.51 803.45 461.72 C 803.00 461.31 802.54 460.93 802.09 460.57 Z" />
<path fill="#006838" opacity="1.00" d=" M 603.50 441.43 C 605.21 436.50 612.81 434.58 616.18 438.84 C 618.11 441.45 620.40 443.73 622.60 446.09 C 622.70 449.45 622.92 453.08 625.26 455.74 C 630.01 461.47 635.19 467.13 641.85 470.67 C 640.00 471.80 637.29 472.47 636.75 474.89 C 636.98 478.43 637.85 481.89 638.42 485.39 C 635.50 487.18 632.57 488.97 629.76 490.92 L 629.24 491.26 C 629.17 492.70 629.16 494.13 629.16 495.58 C 629.16 498.20 629.04 500.81 628.98 503.44 C 619.40 502.35 609.59 503.09 600.20 500.77 C 595.12 499.27 589.62 496.86 587.29 491.76 C 584.66 486.77 588.42 479.85 594.09 479.55 C 598.54 479.17 601.20 483.48 605.08 484.83 C 612.27 487.82 621.18 483.28 623.45 475.96 C 623.95 473.64 622.47 471.57 621.29 469.73 C 616.20 462.50 609.24 456.73 604.58 449.17 C 603.12 446.90 602.73 444.00 603.50 441.43 Z" />
<path fill="#006838" opacity="1.00" d=" M 809.18 481.46 C 812.33 477.82 815.99 474.66 819.93 471.91 C 811.44 479.07 804.56 487.83 797.95 496.69 C 797.50 496.69 796.60 496.67 796.15 496.66 C 796.44 495.14 796.72 493.62 797.10 492.13 L 797.52 491.71 C 797.83 492.25 798.43 493.33 798.74 493.87 C 799.83 492.88 800.51 491.56 801.27 490.32 C 804.08 487.52 806.71 484.56 809.18 481.46 Z" />
</g>
<g id="#f05928fe">
<path fill="#f05928" opacity="1.00" d=" M 406.19 240.13 C 408.97 241.07 410.58 244.14 412.82 245.99 C 406.17 252.79 399.30 259.36 392.75 266.24 C 390.16 264.88 387.42 262.57 386.32 259.99 C 392.83 253.27 399.44 246.61 406.19 240.13 Z" />
</g>
<g id="#262262ff">
<path fill="#262262" opacity="1.00" d=" M 416.90 264.75 C 420.75 263.11 424.76 261.87 428.61 260.22 C 430.56 265.98 431.86 271.99 432.96 277.98 C 427.49 273.71 422.32 269.08 416.90 264.75 Z" />
<path fill="#262262" opacity="1.00" d=" M 412.46 312.04 C 412.70 305.63 418.52 299.93 425.00 300.19 C 431.87 299.78 437.73 306.03 437.86 312.73 C 433.68 312.78 429.50 312.78 425.33 312.72 C 425.16 316.97 425.23 321.23 425.22 325.48 C 418.16 325.59 411.85 319.13 412.46 312.04 Z" />
<path fill="#262262" opacity="1.00" d=" M 735.60 446.97 C 737.99 446.57 740.38 446.03 742.75 445.44 C 747.93 446.14 753.03 447.47 758.02 449.01 C 763.15 450.79 768.82 453.16 771.36 458.33 C 771.68 460.48 771.87 462.66 771.82 464.85 C 770.26 467.51 768.24 469.95 765.58 471.57 C 758.07 476.34 749.28 478.35 740.84 480.82 C 743.02 481.89 745.27 482.82 747.51 483.80 C 747.96 484.06 748.88 484.58 749.34 484.84 C 749.39 485.25 749.51 486.07 749.56 486.48 C 748.53 489.53 747.28 492.50 745.99 495.45 C 737.64 494.39 729.60 491.66 721.26 490.52 C 716.84 489.59 712.49 488.19 707.97 487.95 C 703.77 488.19 699.76 489.58 695.69 490.53 C 693.10 491.04 690.54 491.65 687.98 492.27 C 687.50 491.99 686.55 491.44 686.08 491.16 C 684.86 488.37 683.91 485.49 683.11 482.57 C 681.55 480.99 679.31 480.50 677.31 479.75 C 671.67 477.84 666.10 475.13 662.07 470.62 C 658.16 465.39 661.73 457.28 667.70 455.44 C 668.72 457.83 670.65 460.03 673.38 460.32 C 683.27 461.75 693.23 462.72 703.14 464.04 C 700.03 464.38 696.97 464.99 693.90 465.54 C 698.06 466.50 702.24 467.44 706.30 468.80 C 708.57 469.48 711.01 470.62 713.37 469.53 C 721.19 466.75 729.20 464.54 737.22 462.42 C 732.77 461.88 728.30 461.50 723.87 460.79 C 727.33 456.78 732.31 453.82 734.15 448.64 C 734.61 448.07 735.09 447.51 735.60 446.97 Z" />
<path fill="#262262" opacity="1.00" d=" M 265.04 482.43 C 269.75 498.94 278.91 514.04 290.94 526.25 C 288.61 540.85 286.15 555.45 283.30 569.96 C 283.04 570.58 282.52 571.82 282.26 572.44 C 278.56 572.43 274.80 572.62 271.21 571.59 L 270.51 571.43 C 267.23 553.24 266.44 534.59 268.25 516.21 C 255.60 522.34 241.86 526.01 228.07 528.69 C 228.37 532.31 230.03 535.59 230.94 539.07 C 233.78 549.41 235.62 560.27 234.21 570.99 C 233.35 576.97 231.05 583.29 225.91 586.89 C 220.92 590.45 214.34 590.37 208.58 589.16 C 187.92 584.49 167.08 580.53 146.49 575.56 C 146.47 571.81 146.99 568.09 147.76 564.43 C 167.13 562.18 186.78 563.07 206.18 564.72 C 200.75 555.65 193.78 547.58 188.50 538.40 C 182.21 527.83 177.28 516.17 176.10 503.83 C 186.31 507.60 197.11 510.14 208.05 509.91 C 215.20 509.61 223.26 508.89 228.71 503.73 C 231.79 501.10 230.37 496.88 229.88 493.49 C 239.89 490.51 249.92 487.58 260.08 485.16 C 261.78 484.41 265.03 484.95 265.04 482.43 Z" />
</g>
<g id="#2bb673ff">
<path fill="#2bb673" opacity="1.00" d=" M 390.13 289.30 C 394.25 289.35 398.38 289.26 402.50 289.43 C 402.41 293.52 402.43 297.61 402.45 301.70 C 398.24 301.73 394.03 301.80 389.83 301.61 C 389.89 297.50 389.68 293.39 390.13 289.30 Z" />
<path fill="#2bb673" opacity="1.00" d=" M 785.17 345.02 C 784.87 341.26 788.06 337.26 792.01 337.61 C 796.70 337.93 799.80 343.78 797.85 347.96 C 796.84 350.48 795.08 352.58 793.23 354.52 C 792.97 353.01 792.79 351.50 792.68 349.98 C 793.68 348.96 794.83 348.08 795.96 347.19 C 794.82 347.51 793.69 347.82 792.57 348.14 C 792.07 345.73 791.68 343.30 791.39 340.87 C 791.30 341.82 791.13 343.72 791.04 344.67 C 790.27 344.35 788.72 343.70 787.95 343.38 C 791.41 345.70 793.31 350.23 791.21 354.14 C 788.60 351.65 784.88 349.08 785.17 345.02 Z" />
<path fill="#2bb673" opacity="1.00" d=" M 878.51 363.99 C 879.80 359.16 886.00 355.75 890.51 358.54 C 894.89 361.21 894.75 367.93 891.51 371.42 C 888.62 373.94 884.78 375.04 881.07 375.60 C 881.89 373.94 882.73 372.28 883.56 370.62 C 885.43 370.63 887.33 370.65 889.23 370.64 C 887.59 370.35 885.93 370.07 884.31 369.82 C 885.65 367.20 887.12 364.64 888.76 362.20 C 888.48 362.29 887.91 362.45 887.63 362.54 C 887.01 363.57 886.39 364.60 885.79 365.64 C 884.94 364.41 884.11 363.21 883.30 361.98 C 883.77 363.65 884.30 365.31 884.54 367.05 C 883.52 369.86 881.96 372.68 879.27 374.19 C 878.57 370.85 877.86 367.39 878.51 363.99 Z" />
<path fill="#2bb673" opacity="1.00" d=" M 777.84 360.85 C 781.33 357.67 787.39 359.91 788.99 364.07 C 790.09 367.11 789.50 370.40 789.17 373.52 C 788.62 373.09 787.50 372.23 786.95 371.80 C 785.28 369.69 787.27 367.13 787.81 364.97 C 786.91 366.35 785.97 367.71 785.06 369.07 C 783.45 367.03 781.83 365.01 780.15 363.04 C 780.75 364.32 781.36 365.60 781.99 366.89 C 781.22 367.07 779.68 367.42 778.91 367.60 C 780.30 367.65 781.69 367.69 783.10 367.75 C 784.85 369.92 786.57 372.13 788.13 374.46 C 785.17 374.40 782.21 373.82 779.58 372.47 C 775.56 370.31 774.27 364.00 777.84 360.85 Z" />
<path fill="#2bb673" opacity="1.00" d=" M 798.12 362.00 C 801.25 360.55 805.82 360.97 807.71 364.20 C 810.52 368.72 806.01 375.02 800.94 374.67 C 797.80 374.69 794.84 373.53 791.95 372.48 C 793.29 368.69 794.46 364.25 798.12 362.00 Z" />
<path fill="#2bb673" opacity="1.00" d=" M 855.38 377.90 C 855.87 373.97 859.26 371.24 863.01 370.60 C 865.92 371.43 868.90 372.95 869.87 376.06 C 872.04 380.70 869.04 385.51 865.68 388.63 C 864.56 389.31 863.60 391.48 862.09 390.58 C 858.66 387.27 854.29 383.18 855.38 377.90 Z" />
<path fill="#2bb673" opacity="1.00" d=" M 664.24 388.36 C 665.60 386.35 667.68 383.44 670.50 384.43 C 672.39 387.06 672.74 390.41 673.62 393.46 C 674.09 395.53 674.69 397.60 675.61 399.53 C 675.88 399.95 676.41 400.79 676.68 401.21 C 680.17 407.04 686.12 411.14 688.75 417.51 C 690.36 421.20 688.30 424.93 686.44 428.07 C 682.29 427.53 678.15 426.99 674.00 426.49 C 674.56 421.89 675.66 417.28 675.05 412.62 C 671.71 416.19 673.12 421.78 671.88 426.21 C 668.20 425.69 664.51 425.29 660.80 425.22 C 665.88 418.71 667.13 409.87 665.17 401.97 C 664.29 397.57 661.80 392.68 664.24 388.36 Z" />
<path fill="#2bb673" opacity="1.00" d=" M 868.88 390.73 C 871.60 387.96 875.34 386.64 879.01 385.65 C 882.86 386.47 887.09 388.81 887.58 393.14 C 888.48 399.35 880.40 403.37 875.37 400.50 C 872.15 398.60 869.82 395.49 868.09 392.23 C 871.03 392.57 874.11 392.76 876.84 394.06 C 878.34 395.16 879.37 396.75 880.56 398.18 C 880.08 396.92 879.61 395.67 879.16 394.43 C 880.81 394.45 882.47 394.46 884.13 394.46 C 881.25 393.57 878.24 393.27 875.26 393.08 C 876.05 391.28 876.78 389.44 877.78 387.73 C 876.29 389.33 874.98 391.23 873.03 392.30 C 871.48 392.24 870.15 391.47 868.88 390.73 Z" />
<path fill="#2bb673" opacity="1.00" d=" M 791.42 388.47 C 794.39 386.96 798.57 387.61 800.37 390.60 C 802.90 394.74 799.63 400.55 795.05 401.32 C 792.38 401.68 789.69 401.29 787.04 401.12 C 788.49 399.70 786.91 398.66 786.20 397.65 C 786.78 394.19 787.76 389.90 791.42 388.47 M 789.22 391.60 C 789.32 394.07 789.47 396.58 788.83 399.00 C 791.48 396.89 794.67 395.93 798.02 396.78 C 797.18 396.06 796.36 395.34 795.55 394.63 C 796.25 393.76 796.87 392.85 797.42 391.88 C 795.16 392.70 793.22 394.13 791.41 395.68 C 790.87 394.21 790.36 392.71 789.22 391.60 Z" />
<path fill="#2bb673" opacity="1.00" d=" M 768.59 394.48 C 770.60 391.54 774.82 391.61 777.82 392.80 C 781.81 395.21 782.85 400.37 782.87 404.70 C 779.60 405.27 776.24 405.99 772.94 405.31 C 768.73 403.96 765.82 398.37 768.59 394.48 M 778.53 395.92 C 778.21 397.21 777.91 398.52 777.64 399.83 C 775.79 398.52 773.82 397.40 771.76 396.47 C 772.09 397.13 772.74 398.45 773.07 399.11 C 772.35 399.72 771.64 400.34 770.94 400.96 C 774.89 399.46 778.18 401.88 781.53 403.60 C 780.84 402.62 780.15 401.64 779.48 400.67 C 779.34 399.05 779.33 397.38 778.53 395.92 Z" />
<path fill="#2bb673" opacity="1.00" d=" M 608.84 393.84 C 610.11 392.34 612.36 393.21 613.68 394.22 C 618.47 397.80 623.00 402.22 629.05 403.57 C 634.85 405.42 641.74 405.14 646.52 409.39 C 649.57 412.02 649.06 416.36 649.71 419.96 C 650.58 423.56 652.53 426.81 654.68 429.79 C 656.33 428.49 658.02 427.24 659.73 426.00 C 659.58 430.13 661.28 433.97 662.38 437.87 C 664.08 443.75 666.05 449.54 667.70 455.44 C 661.73 457.28 658.16 465.39 662.07 470.62 C 661.63 470.93 660.73 471.53 660.28 471.83 C 657.62 473.64 654.85 475.26 652.09 476.90 C 649.85 475.43 647.59 473.98 645.28 472.64 C 644.13 471.97 642.98 471.32 641.85 470.67 C 635.19 467.13 630.01 461.47 625.26 455.74 C 622.92 453.08 622.70 449.45 622.60 446.09 C 623.97 440.04 627.44 434.43 627.21 428.07 C 626.52 421.24 622.59 415.07 617.58 410.53 C 614.64 407.78 610.80 405.84 608.73 402.27 C 607.74 399.59 607.93 396.51 608.84 393.84 M 630.85 414.88 C 633.27 420.43 636.68 425.50 638.99 431.11 C 641.01 435.03 641.92 439.54 644.67 443.05 C 644.62 441.35 644.66 439.61 643.95 438.04 C 641.36 431.49 638.19 425.20 634.91 418.99 C 633.93 417.29 633.12 415.05 630.85 414.88 Z" />
<path fill="#2bb673" opacity="1.00" d=" M 827.70 409.28 C 823.76 405.27 825.27 397.10 830.95 395.56 C 835.90 394.36 841.13 399.03 840.89 404.01 C 840.94 407.63 839.28 410.94 837.71 414.10 C 836.87 412.47 836.10 410.82 835.35 409.17 C 836.67 407.53 837.97 405.87 839.20 404.16 C 837.79 405.27 836.42 406.43 835.06 407.58 C 834.15 404.83 833.01 402.16 831.64 399.61 C 831.93 401.10 832.24 402.59 832.57 404.09 C 831.34 403.78 830.13 403.48 828.92 403.18 C 830.49 404.21 832.21 405.09 833.55 406.45 C 835.03 408.95 835.66 411.84 836.53 414.60 C 833.27 413.43 830.13 411.77 827.70 409.28 Z" />
<path fill="#2bb673" opacity="1.00" d=" M 842.83 412.41 C 845.78 409.66 848.84 406.37 853.01 405.68 C 857.37 405.22 862.44 408.35 862.58 413.03 C 863.03 418.80 855.92 422.65 850.98 420.49 C 847.62 419.08 845.09 416.34 842.75 413.64 C 845.81 413.69 848.89 413.44 851.94 413.90 C 853.49 415.03 854.74 416.51 856.06 417.90 C 855.39 416.64 854.73 415.38 854.08 414.12 C 855.45 413.91 856.82 413.69 858.20 413.48 C 855.45 413.30 852.70 413.17 849.95 413.04 C 850.58 411.32 851.22 409.61 851.87 407.89 C 850.76 409.47 849.75 411.13 848.46 412.55 C 846.79 413.85 844.59 412.93 842.83 412.41 Z" />
<path fill="#2bb673" opacity="1.00" d=" M 775.02 417.07 C 777.92 414.56 782.74 414.89 785.42 417.58 C 787.69 420.32 788.71 423.82 789.13 427.30 C 784.80 428.62 778.92 430.47 775.42 426.59 C 772.84 424.19 772.34 419.57 775.02 417.07 Z" />
<path fill="#2bb673" opacity="1.00" d=" M 819.29 421.49 C 824.64 419.63 830.54 424.52 830.28 430.01 C 830.04 433.46 828.73 436.71 827.51 439.92 C 823.77 439.57 820.33 437.73 817.43 435.44 C 813.15 431.83 813.86 423.60 819.29 421.49 Z" />
<path fill="#2bb673" opacity="1.00" d=" M 827.84 446.38 C 830.42 443.81 833.51 441.63 837.03 440.56 C 841.65 439.60 847.16 443.07 847.38 448.01 C 847.67 452.45 843.24 455.95 839.02 455.79 C 833.89 456.01 830.42 451.38 827.70 447.68 C 830.41 447.66 833.21 447.39 835.86 448.14 C 837.66 449.27 839.16 450.82 840.75 452.24 C 840.02 451.08 839.30 449.93 838.59 448.79 C 840.11 448.72 841.64 448.66 843.18 448.59 C 840.46 448.04 837.73 447.59 835.00 447.20 C 835.29 446.13 835.59 445.06 835.90 443.99 C 834.94 445.05 834.01 446.13 832.94 447.07 C 831.20 447.32 829.51 446.68 827.84 446.38 Z" />
</g>
<g id="#ef4136ff">
<path fill="#ef4136" opacity="1.00" d=" M 348.37 335.03 C 348.50 327.59 348.20 320.14 348.53 312.71 C 358.47 312.83 368.41 312.73 378.35 312.76 C 378.37 320.24 378.41 327.72 378.33 335.20 C 368.34 335.08 358.35 335.41 348.37 335.03 Z" />
</g>
<g id="#231f20ff">
<path fill="#231f20" opacity="1.00" d=" M 700.77 316.82 C 706.22 314.46 712.65 314.16 718.06 316.81 C 723.91 319.59 726.25 326.95 724.74 332.97 C 723.62 336.31 726.00 339.78 724.69 343.01 C 723.21 345.38 720.92 347.42 718.17 348.14 C 716.38 347.78 713.44 346.91 714.48 344.48 C 716.64 342.37 718.50 339.68 717.42 336.49 C 715.81 335.87 714.57 337.25 713.36 338.04 L 712.29 338.79 C 712.30 335.95 712.48 333.12 712.85 330.31 C 708.11 330.98 703.64 329.12 699.03 328.55 C 696.33 328.38 696.11 331.88 695.28 333.72 C 693.08 329.16 689.61 324.29 690.74 319.01 C 692.98 315.51 697.66 318.53 700.77 316.82 Z" />
<path fill="#231f20" opacity="1.00" d=" M 216.00 375.00 C 219.66 369.99 227.14 366.61 232.89 370.03 C 235.21 372.04 237.25 374.67 240.37 375.47 C 243.55 376.36 247.31 376.79 249.37 379.72 C 250.55 383.72 246.90 387.01 244.39 389.59 C 239.53 389.82 235.19 387.22 231.53 384.31 C 230.00 387.78 228.76 391.41 228.50 395.23 C 227.30 395.25 226.09 395.27 224.89 395.30 C 224.53 393.62 224.76 391.71 223.79 390.23 C 222.77 388.59 220.68 389.46 219.13 389.28 C 218.70 392.56 222.51 395.90 219.80 398.79 C 217.93 400.91 216.31 403.27 215.73 406.10 C 215.80 405.31 215.94 403.75 216.01 402.96 C 210.44 400.19 209.63 393.55 209.61 388.01 C 209.69 382.89 213.19 378.93 216.00 375.00 Z" />
<path fill="#231f20" opacity="1.00" d=" M 668.31 485.22 C 669.29 483.83 670.91 483.08 672.31 482.18 C 674.22 482.18 676.13 482.35 678.05 482.53 C 678.01 486.28 678.84 490.05 681.12 493.10 C 680.94 493.69 680.57 494.86 680.39 495.44 C 678.23 500.85 676.13 506.39 675.62 512.23 C 674.35 512.30 673.08 512.36 671.83 512.42 C 671.03 506.85 670.37 501.27 669.48 495.72 L 669.38 495.13 C 668.94 491.84 668.30 488.55 668.31 485.22 Z" />
<path fill="#231f20" opacity="1.00" d=" M 754.82 487.43 C 758.20 486.78 762.15 487.85 763.84 491.08 C 762.69 499.64 759.30 507.74 757.76 516.24 C 756.82 517.81 755.04 517.51 753.49 517.48 C 753.35 512.61 752.61 507.76 751.53 503.01 C 751.04 501.11 750.58 499.21 750.31 497.27 C 752.89 494.58 754.18 491.04 754.82 487.43 Z" />
<path fill="#231f20" opacity="1.00" d=" M 132.68 561.44 C 135.72 559.88 139.51 560.00 142.12 562.36 C 141.49 566.76 141.49 571.26 142.65 575.58 L 142.83 576.44 C 138.70 580.81 136.27 586.34 133.59 591.63 C 132.78 593.87 129.42 592.26 130.13 590.12 C 130.59 580.53 132.04 571.02 132.68 561.44 Z" />
<path fill="#231f20" opacity="1.00" d=" M 271.00 577.75 C 275.33 578.24 279.59 577.34 283.83 576.58 C 289.32 580.65 295.71 583.06 301.88 585.88 C 301.15 587.04 300.97 589.22 299.06 588.77 C 289.35 588.62 279.63 588.29 269.93 587.99 C 266.87 585.49 267.80 580.61 269.79 577.67 L 271.00 577.75 Z" />
</g>
<g id="#eebbabff">
<path fill="#eebbab" opacity="1.00" d=" M 695.28 333.72 C 696.11 331.88 696.33 328.38 699.03 328.55 C 703.64 329.12 708.11 330.98 712.85 330.31 C 712.48 333.12 712.30 335.95 712.29 338.79 L 713.36 338.04 C 711.63 341.39 709.99 344.79 708.14 348.08 C 708.46 350.56 709.55 353.20 708.57 355.66 C 705.14 363.65 699.03 369.96 693.92 376.86 C 688.24 384.75 681.86 392.10 675.61 399.53 C 674.69 397.60 674.09 395.53 673.62 393.46 C 673.62 390.17 674.30 386.95 674.90 383.73 C 678.30 384.76 681.80 385.42 685.35 385.71 C 688.52 378.58 691.92 371.52 695.92 364.82 C 697.27 362.34 700.02 360.04 699.05 356.93 C 698.73 355.00 699.19 352.92 698.40 351.10 C 695.65 345.78 694.90 339.62 695.28 333.72 Z" />
</g>
<g id="#e6a494ff">
<path fill="#e6a494" opacity="1.00" d=" M 713.36 338.04 C 714.57 337.25 715.81 335.87 717.42 336.49 C 718.50 339.68 716.64 342.37 714.48 344.48 C 713.44 346.91 716.38 347.78 718.17 348.14 C 717.65 348.45 716.60 349.07 716.07 349.39 C 716.62 352.36 717.63 355.44 719.98 357.50 C 719.90 361.63 716.28 364.38 712.72 365.66 C 710.04 366.69 707.19 365.75 704.50 365.31 C 700.91 377.61 697.92 391.18 688.38 400.43 C 685.03 402.94 680.29 403.54 676.68 401.21 C 676.41 400.79 675.88 399.95 675.61 399.53 C 681.86 392.10 688.24 384.75 693.92 376.86 C 699.03 369.96 705.14 363.65 708.57 355.66 C 709.55 353.20 708.46 350.56 708.14 348.08 C 709.99 344.79 711.63 341.39 713.36 338.04 Z" />
</g>
<g id="#875b3af9">
<path fill="#875b3a" opacity="0.98" d=" M 791.39 340.87 C 791.68 343.30 792.07 345.73 792.57 348.14 C 793.69 347.82 794.82 347.51 795.96 347.19 C 794.83 348.08 793.68 348.96 792.68 349.98 C 792.79 351.50 792.97 353.01 793.23 354.52 C 794.38 369.94 788.75 384.66 785.38 399.46 C 785.63 400.07 785.88 400.69 786.14 401.31 C 785.10 406.12 788.21 410.57 789.42 415.10 C 791.10 419.97 791.99 425.05 792.98 430.09 C 793.05 430.52 793.19 431.39 793.27 431.82 C 793.39 434.76 793.45 437.72 793.91 440.64 C 793.13 443.36 792.19 446.04 791.09 448.64 C 791.96 440.04 790.38 431.43 789.00 422.98 C 787.83 416.73 784.97 410.98 783.34 404.86 C 782.07 396.26 786.05 388.22 787.89 380.02 C 788.13 378.23 789.36 376.10 788.13 374.46 C 786.57 372.13 784.85 369.92 783.10 367.75 C 781.69 367.69 780.30 367.65 778.91 367.60 C 779.68 367.42 781.22 367.07 781.99 366.89 C 781.36 365.60 780.75 364.32 780.15 363.04 C 781.83 365.01 783.45 367.03 785.06 369.07 C 785.97 367.71 786.91 366.35 787.81 364.97 C 787.27 367.13 785.28 369.69 786.95 371.80 C 787.50 372.23 788.62 373.09 789.17 373.52 C 791.07 367.22 790.35 360.53 791.21 354.14 C 793.31 350.23 791.41 345.70 787.95 343.38 C 788.72 343.70 790.27 344.35 791.04 344.67 C 791.13 343.72 791.30 341.82 791.39 340.87 Z" />
</g>
<g id="#b3e2fcff">
<path fill="#b3e2fc" opacity="1.00" d=" M 368.08 352.11 C 400.90 345.71 436.52 356.63 459.91 380.57 C 450.67 389.63 441.61 398.85 432.44 407.98 C 434.19 410.69 436.05 413.63 435.78 417.01 C 436.07 423.46 430.39 429.20 424.00 429.35 C 420.43 429.77 417.51 427.45 414.36 426.23 C 405.05 435.01 396.36 444.45 387.04 453.23 C 377.73 444.25 368.78 434.89 359.50 425.88 C 361.33 423.26 363.14 420.37 362.89 417.03 C 363.34 410.11 356.73 404.10 349.95 404.62 C 346.92 404.66 344.47 406.60 341.88 407.88 C 332.88 399.51 324.38 390.57 315.68 381.87 C 315.34 381.48 314.65 380.70 314.30 380.30 C 328.99 365.95 347.81 355.75 368.08 352.11 Z" />
</g>
<g id="#fbb040ff">
<path fill="#fbb040" opacity="1.00" d=" M 687.48 357.73 C 691.17 356.81 695.00 356.62 698.76 356.04 L 699.05 356.93 C 700.02 360.04 697.27 362.34 695.92 364.82 C 691.92 371.52 688.52 378.58 685.35 385.71 C 681.80 385.42 678.30 384.76 674.90 383.73 C 674.49 383.62 673.68 383.39 673.27 383.27 C 674.58 376.71 677.56 370.59 680.91 364.84 C 682.67 362.17 684.42 359.07 687.48 357.73 Z" />
<path fill="#fbb040" opacity="1.00" d=" M 719.98 357.50 C 723.71 357.44 727.39 358.16 731.10 358.57 C 735.04 359.20 739.73 359.11 742.34 362.69 C 749.86 371.68 754.57 382.57 759.46 393.12 C 754.01 395.91 748.22 397.85 742.46 399.82 C 742.77 406.37 743.26 412.92 743.64 419.48 C 738.73 426.63 733.82 433.78 728.97 440.97 C 726.72 443.89 724.80 448.34 720.38 447.79 C 718.89 447.70 717.41 447.60 715.94 447.50 C 714.73 443.49 713.73 439.41 712.32 435.46 C 711.48 433.08 709.45 431.04 706.91 430.61 C 701.42 429.69 695.85 429.28 690.33 428.52 C 689.35 419.19 688.94 409.80 688.38 400.43 C 697.92 391.18 700.91 377.61 704.50 365.31 C 707.19 365.75 710.04 366.69 712.72 365.66 C 716.28 364.38 719.90 361.63 719.98 357.50 Z" />
<path fill="#fbb040" opacity="1.00" d=" M 735.60 446.97 C 738.07 444.21 740.94 441.83 743.78 439.45 C 743.74 441.38 743.66 443.31 743.55 445.24 L 742.75 445.44 C 740.38 446.03 737.99 446.57 735.60 446.97 Z" />
</g>
<g id="#8b5e3cff">
<path fill="#8b5e3c" opacity="1.00" d=" M 883.30 361.98 C 884.11 363.21 884.94 364.41 885.79 365.64 C 886.39 364.60 887.01 363.57 887.63 362.54 C 887.91 362.45 888.48 362.29 888.76 362.20 C 887.12 364.64 885.65 367.20 884.31 369.82 C 885.93 370.07 887.59 370.35 889.23 370.64 C 887.33 370.65 885.43 370.63 883.56 370.62 C 882.73 372.28 881.89 373.94 881.07 375.60 C 877.39 381.00 873.15 386.08 868.27 390.42 C 868.42 390.50 868.72 390.65 868.88 390.73 C 870.15 391.47 871.48 392.24 873.03 392.30 C 874.98 391.23 876.29 389.33 877.78 387.73 C 876.78 389.44 876.05 391.28 875.26 393.08 C 878.24 393.27 881.25 393.57 884.13 394.46 C 882.47 394.46 880.81 394.45 879.16 394.43 C 879.61 395.67 880.08 396.92 880.56 398.18 C 879.37 396.75 878.34 395.16 876.84 394.06 C 874.11 392.76 871.03 392.57 868.09 392.23 C 866.16 391.88 865.00 393.72 863.66 394.73 C 858.80 399.27 853.35 403.08 848.11 407.15 C 846.23 408.77 844.06 410.19 842.83 412.41 C 844.59 412.93 846.79 413.85 848.46 412.55 C 849.75 411.13 850.76 409.47 851.87 407.89 C 851.22 409.61 850.58 411.32 849.95 413.04 C 852.70 413.17 855.45 413.30 858.20 413.48 C 856.82 413.69 855.45 413.91 854.08 414.12 C 854.73 415.38 855.39 416.64 856.06 417.90 C 854.74 416.51 853.49 415.03 851.94 413.90 C 848.89 413.44 845.81 413.69 842.75 413.64 L 841.68 413.64 C 838.46 418.11 837.39 423.58 835.75 428.73 C 833.80 434.89 831.05 440.78 827.84 446.38 C 829.51 446.68 831.20 447.32 832.94 447.07 C 834.01 446.13 834.94 445.05 835.90 443.99 C 835.59 445.06 835.29 446.13 835.00 447.20 C 837.73 447.59 840.46 448.04 843.18 448.59 C 841.64 448.66 840.11 448.72 838.59 448.79 C 839.30 449.93 840.02 451.08 840.75 452.24 C 839.16 450.82 837.66 449.27 835.86 448.14 C 833.21 447.39 830.41 447.66 827.70 447.68 L 826.99 447.70 C 823.29 454.72 818.00 460.72 813.95 467.51 C 812.45 468.75 810.87 469.89 809.30 471.02 L 808.90 469.14 C 810.82 466.02 813.12 463.16 815.30 460.22 C 816.98 458.92 818.47 457.33 819.17 455.27 C 821.80 450.16 825.74 445.73 827.60 440.21 C 832.40 432.86 833.85 424.02 836.91 415.92 C 836.82 415.59 836.62 414.93 836.53 414.60 C 835.66 411.84 835.03 408.95 833.55 406.45 C 832.21 405.09 830.49 404.21 828.92 403.18 C 830.13 403.48 831.34 403.78 832.57 404.09 C 832.24 402.59 831.93 401.10 831.64 399.61 C 833.01 402.16 834.15 404.83 835.06 407.58 C 836.42 406.43 837.79 405.27 839.20 404.16 C 837.97 405.87 836.67 407.53 835.35 409.17 C 836.10 410.82 836.87 412.47 837.71 414.10 C 843.90 404.75 854.52 400.07 862.14 392.12 C 867.18 387.88 871.97 383.26 875.90 377.94 C 876.94 376.62 877.75 375.04 879.27 374.19 C 881.96 372.68 883.52 369.86 884.54 367.05 C 884.30 365.31 883.77 363.65 883.30 361.98 Z" />
</g>
<g id="#2d9beeff">
<path fill="#2d9bee" opacity="1.00" d=" M 265.13 423.34 C 270.19 407.23 279.09 392.39 291.00 380.43 C 300.14 389.53 309.19 398.74 318.40 407.78 C 320.20 407.10 321.70 405.83 323.47 405.09 C 330.21 402.82 337.87 407.14 339.56 414.00 C 340.47 418.30 338.98 422.57 336.37 425.97 C 345.68 434.89 354.55 444.26 363.84 453.20 C 361.87 455.38 359.79 457.46 357.71 459.53 C 350.56 466.53 343.64 473.77 336.43 480.69 C 333.63 479.53 331.14 477.34 327.95 477.44 C 322.36 477.06 317.29 481.04 315.53 486.21 C 314.36 490.70 315.86 495.21 318.60 498.80 C 309.21 507.78 300.30 517.25 290.94 526.25 C 278.91 514.04 269.75 498.94 265.04 482.43 C 262.68 474.84 261.49 466.95 260.93 459.04 L 260.86 458.33 C 267.80 458.48 274.70 457.86 281.61 457.33 C 284.80 457.04 288.36 459.54 291.16 457.25 C 294.89 454.74 296.48 450.21 296.66 445.88 C 294.02 446.62 291.35 447.23 288.66 447.71 C 288.88 446.01 290.04 444.27 289.50 442.54 C 286.12 441.57 284.01 445.51 281.83 447.42 C 274.92 446.99 268.04 446.20 261.15 445.50 C 261.47 442.24 261.82 438.98 261.79 435.70 L 262.21 435.62 C 263.16 431.52 263.96 427.38 265.13 423.34 Z" />
</g>
<g id="#2e3192ff">
<path fill="#2e3192" opacity="1.00" d=" M 432.44 407.98 C 441.61 398.85 450.67 389.63 459.91 380.57 C 473.70 394.22 483.37 411.92 487.56 430.86 C 491.50 448.98 490.62 468.20 484.82 485.84 C 479.77 500.99 471.21 515.07 459.75 526.23 C 450.74 517.21 441.90 507.99 432.64 499.25 C 429.96 499.86 427.72 501.73 424.97 502.16 C 418.02 503.11 410.79 497.19 411.12 490.00 C 410.80 486.60 412.62 483.61 414.27 480.81 C 405.26 471.55 396.19 462.33 386.82 453.44 L 387.04 453.23 C 396.36 444.45 405.05 435.01 414.36 426.23 C 417.51 427.45 420.43 429.77 424.00 429.35 C 430.39 429.20 436.07 423.46 435.78 417.01 C 436.05 413.63 434.19 410.69 432.44 407.98 Z" />
<path fill="#2e3192" opacity="1.00" d=" M 229.52 411.60 C 234.35 412.07 239.22 412.33 244.04 412.98 C 248.00 414.36 251.47 416.82 255.30 418.52 C 254.58 421.79 253.84 425.09 252.47 428.16 C 251.64 429.81 250.72 431.41 249.82 433.03 C 247.44 432.20 244.94 431.81 242.48 431.35 C 241.54 435.35 240.89 439.40 240.19 443.45 C 236.94 443.18 233.70 442.84 230.46 442.50 C 226.71 438.34 223.12 434.04 219.17 430.07 C 214.62 434.24 208.93 436.69 203.32 439.05 C 206.92 443.38 211.39 446.85 215.87 450.22 C 219.24 452.71 222.74 455.17 226.79 456.43 C 229.95 457.45 233.28 457.77 236.58 458.06 C 234.86 463.46 232.62 468.68 230.88 474.07 C 228.81 480.31 228.87 487.05 229.88 493.49 C 230.37 496.88 231.79 501.10 228.71 503.73 C 223.26 508.89 215.20 509.61 208.05 509.91 C 197.11 510.14 186.31 507.60 176.10 503.83 C 174.56 503.54 175.36 501.85 175.60 500.91 C 179.86 488.69 181.66 475.80 182.66 462.94 C 183.52 454.13 184.60 445.18 188.04 436.94 C 190.85 429.98 195.10 423.69 199.97 418.00 C 202.71 414.65 207.15 413.51 211.15 412.43 L 211.49 412.82 C 213.79 416.54 217.97 418.28 222.19 418.66 C 224.09 418.54 226.10 418.64 227.88 417.84 C 230.29 416.75 229.14 413.63 229.52 411.60 Z" />
</g>
<g id="#0000001a">
<path fill="#000000" opacity="0.10" d=" M 315.68 381.87 C 324.38 390.57 332.88 399.51 341.88 407.88 C 344.47 406.60 346.92 404.66 349.95 404.62 C 356.73 404.10 363.34 410.11 362.89 417.03 C 363.14 420.37 361.33 423.26 359.50 425.88 C 368.78 434.89 377.73 444.25 387.04 453.23 L 386.82 453.44 C 384.31 455.88 381.87 458.41 379.38 460.89 C 378.70 459.81 378.08 458.71 377.24 457.76 C 369.57 449.81 361.38 442.35 353.97 434.16 C 358.29 429.44 358.30 421.64 354.11 416.85 C 350.33 413.00 344.52 412.36 339.56 414.00 C 337.87 407.14 330.21 402.82 323.47 405.09 C 319.70 398.77 313.27 394.69 308.80 388.91 C 310.90 386.36 313.99 384.78 315.68 381.87 Z" />
<path fill="#000000" opacity="0.10" d=" M 258.43 436.39 C 258.87 436.28 259.77 436.05 260.21 435.94 L 261.79 435.70 C 261.82 438.98 261.47 442.24 261.15 445.50 C 259.54 445.34 257.95 445.16 256.35 444.99 C 257.08 442.13 257.69 439.24 258.43 436.39 Z" />
<path fill="#000000" opacity="0.10" d=" M 255.12 459.08 C 257.06 459.06 258.99 459.04 260.93 459.04 C 261.49 466.95 262.68 474.84 265.04 482.43 C 265.03 484.95 261.78 484.41 260.08 485.16 C 259.47 484.90 258.25 484.38 257.64 484.12 C 255.94 475.89 255.00 467.48 255.12 459.08 Z" />
<path fill="#000000" opacity="0.10" d=" M 336.43 480.69 C 343.64 473.77 350.56 466.53 357.71 459.53 C 358.21 462.12 355.82 463.61 354.30 465.25 C 346.13 473.06 338.57 481.51 330.18 489.07 C 328.25 487.87 326.38 486.33 324.06 486.04 C 321.21 485.57 318.34 486.99 315.53 486.21 C 317.29 481.04 322.36 477.06 327.95 477.44 C 331.14 477.34 333.63 479.53 336.43 480.69 Z" />
<path fill="#000000" opacity="0.10" d=" M 334.22 506.06 C 332.09 499.84 331.97 491.46 338.36 487.70 C 337.82 491.74 339.40 495.52 341.63 498.80 C 339.09 501.15 336.65 503.60 334.22 506.06 Z" />
<path fill="#000000" opacity="0.10" d=" M 315.71 527.67 C 329.24 540.73 346.43 549.97 364.82 553.96 C 382.80 557.95 401.88 557.01 419.35 551.16 C 424.80 556.53 430.02 562.13 435.74 567.23 L 435.64 567.96 C 431.91 568.93 428.19 569.93 424.42 570.69 C 421.82 566.99 418.42 563.97 415.21 560.83 C 413.77 559.34 411.60 560.54 409.90 560.80 C 376.08 571.09 337.22 561.77 311.63 537.44 C 310.59 536.55 309.80 535.44 309.10 534.29 C 311.32 532.10 313.50 529.87 315.71 527.67 Z" />
</g>
<g id="#f0c1b1ff">
<path fill="#f0c1b1" opacity="1.00" d=" M 228.50 395.23 C 228.76 391.41 230.00 387.78 231.53 384.31 C 235.19 387.22 239.53 389.82 244.39 389.59 C 243.35 395.59 242.21 401.67 239.19 407.05 C 234.63 404.11 231.44 399.68 228.50 395.23 Z" />
</g>
<g id="#e7a996ff">
<path fill="#e7a996" opacity="1.00" d=" M 219.13 389.28 C 220.68 389.46 222.77 388.59 223.79 390.23 C 224.76 391.71 224.53 393.62 224.89 395.30 C 226.09 395.27 227.30 395.25 228.50 395.23 C 231.44 399.68 234.63 404.11 239.19 407.05 C 238.06 408.41 236.99 410.10 235.10 410.43 C 233.21 410.29 231.40 409.72 229.58 409.30 C 229.56 409.87 229.53 411.02 229.52 411.60 C 229.14 413.63 230.29 416.75 227.88 417.84 C 226.10 418.64 224.09 418.54 222.19 418.66 C 220.39 414.77 218.12 411.12 215.58 407.67 L 215.35 407.34 L 215.73 406.10 C 216.31 403.27 217.93 400.91 219.80 398.79 C 222.51 395.90 218.70 392.56 219.13 389.28 Z" />
</g>
<g id="#54905bff">
<path fill="#54905b" opacity="1.00" d=" M 789.22 391.60 C 790.36 392.71 790.87 394.21 791.41 395.68 C 793.22 394.13 795.16 392.70 797.42 391.88 C 796.87 392.85 796.25 393.76 795.55 394.63 C 796.36 395.34 797.18 396.06 798.02 396.78 C 794.67 395.93 791.48 396.89 788.83 399.00 C 789.47 396.58 789.32 394.07 789.22 391.60 Z" />
</g>
<g id="#f3cec0ff">
<path fill="#f3cec0" opacity="1.00" d=" M 742.46 399.82 C 748.22 397.85 754.01 395.91 759.46 393.12 C 760.94 396.78 762.55 400.42 763.63 404.22 L 763.14 404.65 C 758.54 407.44 754.69 411.23 750.31 414.33 C 749.34 415.31 748.01 415.30 746.77 415.00 C 747.62 413.72 748.50 412.45 749.36 411.17 C 746.99 407.42 744.68 403.65 742.46 399.82 Z" />
</g>
<g id="#598a57fe">
<path fill="#598a57" opacity="1.00" d=" M 778.53 395.92 C 779.33 397.38 779.34 399.05 779.48 400.67 C 780.15 401.64 780.84 402.62 781.53 403.60 C 778.18 401.88 774.89 399.46 770.94 400.96 C 771.64 400.34 772.35 399.72 773.07 399.11 C 772.74 398.45 772.09 397.13 771.76 396.47 C 773.82 397.40 775.79 398.52 777.64 399.83 C 777.91 398.52 778.21 397.21 778.53 395.92 Z" />
</g>
<g id="#edb8a7ff">
<path fill="#edb8a7" opacity="1.00" d=" M 750.31 414.33 C 754.69 411.23 758.54 407.44 763.14 404.65 L 763.83 404.41 C 765.29 408.50 766.04 413.01 764.07 417.09 L 763.74 417.24 C 762.06 417.97 760.41 418.78 758.96 419.89 C 749.09 427.64 739.18 435.35 729.14 442.88 C 729.09 442.40 729.01 441.45 728.97 440.97 C 733.82 433.78 738.73 426.63 743.64 419.48 C 744.66 417.98 745.71 416.49 746.77 415.00 C 748.01 415.30 749.34 415.31 750.31 414.33 Z" />
</g>
<g id="#94fdaeff">
<path fill="#94fdae" opacity="1.00" d=" M 799.63 406.38 C 800.33 404.76 802.68 404.96 803.83 406.00 C 808.70 410.35 811.70 416.56 812.79 422.96 C 814.33 430.78 812.99 438.79 813.89 446.66 C 814.31 450.27 818.09 451.98 819.17 455.27 C 818.47 457.33 816.98 458.92 815.30 460.22 C 812.38 462.04 809.97 464.53 808.34 467.56 C 806.92 465.43 805.23 463.53 803.45 461.72 C 803.69 448.51 804.86 435.11 802.36 422.03 C 803.83 434.85 803.39 447.76 802.09 460.57 C 797.26 458.01 791.70 458.21 786.41 458.30 C 788.00 455.10 789.57 451.88 791.09 448.64 C 792.19 446.04 793.13 443.36 793.91 440.64 C 794.59 438.16 795.17 435.65 795.66 433.12 C 796.38 429.26 796.75 425.34 797.10 421.44 C 797.68 416.40 797.42 411.07 799.63 406.38 Z" />
<path fill="#94fdae" opacity="1.00" d=" M 813.95 467.51 C 819.37 463.37 825.09 458.85 832.01 457.74 C 835.39 457.35 840.51 460.09 839.37 464.08 C 835.69 470.45 827.53 472.45 823.96 478.91 C 822.31 481.68 821.46 484.87 819.68 487.57 C 818.25 489.93 815.29 490.09 812.95 490.99 C 809.02 492.18 805.65 494.60 802.52 497.17 L 802.04 497.12 C 800.67 496.94 799.31 496.80 797.95 496.69 C 804.56 487.83 811.44 479.07 819.93 471.91 C 815.99 474.66 812.33 477.82 809.18 481.46 C 809.53 478.00 809.90 474.48 809.30 471.02 C 810.87 469.89 812.45 468.75 813.95 467.51 Z" />
<path fill="#94fdae" opacity="1.00" d=" M 797.52 491.71 C 798.38 490.54 799.86 490.08 801.27 490.32 C 800.51 491.56 799.83 492.88 798.74 493.87 C 798.43 493.33 797.83 492.25 797.52 491.71 Z" />
<path fill="#94fdae" opacity="1.00" d=" M 792.57 494.71 C 794.05 493.81 795.58 492.99 797.10 492.13 C 796.72 493.62 796.44 495.14 796.15 496.66 L 795.20 496.64 C 794.30 496.01 793.42 495.36 792.57 494.71 Z" />
</g>
<g id="#cf816eff">
<path fill="#cf816e" opacity="1.00" d=" M 211.49 412.82 C 212.88 411.12 214.22 409.39 215.58 407.67 C 218.12 411.12 220.39 414.77 222.19 418.66 C 217.97 418.28 213.79 416.54 211.49 412.82 Z" />
</g>
<g id="#0c7c47ff">
<path fill="#0c7c47" opacity="1.00" d=" M 671.88 426.21 C 673.12 421.78 671.71 416.19 675.05 412.62 C 675.66 417.28 674.56 421.89 674.00 426.49 C 673.47 426.42 672.41 426.28 671.88 426.21 Z" />
</g>
<g id="#e8a692ff">
<path fill="#e8a692" opacity="1.00" d=" M 758.96 419.89 C 760.41 418.78 762.06 417.97 763.74 417.24 C 759.20 426.25 751.03 432.69 743.78 439.45 C 740.94 441.83 738.07 444.21 735.60 446.97 C 735.09 447.51 734.61 448.07 734.15 448.64 C 732.25 450.50 729.96 451.89 727.43 452.70 C 724.92 453.34 723.47 455.59 721.90 457.43 C 721.18 457.48 719.74 457.57 719.02 457.62 C 718.37 455.59 717.69 453.58 717.09 451.54 C 718.18 450.28 719.28 449.03 720.38 447.79 C 724.80 448.34 726.72 443.89 728.97 440.97 C 729.01 441.45 729.09 442.40 729.14 442.88 C 739.18 435.35 749.09 427.64 758.96 419.89 Z" />
</g>
<g id="#edb7a5ff">
<path fill="#edb7a5" opacity="1.00" d=" M 255.30 418.52 C 258.04 419.95 260.80 421.35 263.59 422.69 C 261.81 425.30 261.24 430.75 256.99 429.83 C 255.38 429.60 253.95 428.78 252.47 428.16 C 253.84 425.09 254.58 421.79 255.30 418.52 Z" />
<path fill="#edb7a5" opacity="1.00" d=" M 678.05 482.53 C 679.73 482.65 681.41 482.62 683.11 482.57 C 683.91 485.49 684.86 488.37 686.08 491.16 C 684.40 491.76 682.72 492.34 681.12 493.10 C 678.84 490.05 678.01 486.28 678.05 482.53 Z" />
<path fill="#edb7a5" opacity="1.00" d=" M 749.56 486.48 C 751.23 487.12 753.00 487.59 754.82 487.43 C 754.18 491.04 752.89 494.58 750.31 497.27 C 748.90 496.56 747.49 495.87 745.99 495.45 C 747.28 492.50 748.53 489.53 749.56 486.48 Z" />
<path fill="#edb7a5" opacity="1.00" d=" M 142.64 563.67 C 144.08 564.07 145.51 564.48 146.95 564.91 C 146.59 568.00 146.25 571.10 145.98 574.22 C 145.20 574.29 143.63 574.44 142.85 574.51 C 142.29 570.92 142.07 567.27 142.64 563.67 Z" />
<path fill="#edb7a5" opacity="1.00" d=" M 271.21 571.59 C 274.80 572.62 278.56 572.43 282.26 572.44 C 282.53 573.88 281.79 576.30 283.83 576.58 C 279.59 577.34 275.33 578.24 271.00 577.75 C 271.14 575.69 271.18 573.64 271.21 571.59 Z" />
</g>
<g id="#3ca96deb">
<path fill="#3ca96d" opacity="0.92" d=" M 792.98 430.09 C 793.82 426.98 794.71 423.75 797.10 421.44 C 796.75 425.34 796.38 429.26 795.66 433.12 C 795.06 432.79 793.86 432.14 793.27 431.82 C 793.19 431.39 793.05 430.52 792.98 430.09 Z" />
</g>
<g id="#e59e88ff">
<path fill="#e59e88" opacity="1.00" d=" M 263.59 422.69 L 263.93 422.01 L 265.13 423.34 C 263.96 427.38 263.16 431.52 262.21 435.62 L 261.79 435.70 L 260.21 435.94 C 256.61 435.51 253.16 434.38 249.82 433.03 C 250.72 431.41 251.64 429.81 252.47 428.16 C 253.95 428.78 255.38 429.60 256.99 429.83 C 261.24 430.75 261.81 425.30 263.59 422.69 Z" />
</g>
<g id="#bcbec0ff">
<path fill="#bcbec0" opacity="1.00" d=" M 659.71 425.19 L 660.80 425.22 C 664.51 425.29 668.20 425.69 671.88 426.21 C 672.41 426.28 673.47 426.42 674.00 426.49 C 678.15 426.99 682.29 427.53 686.44 428.07 C 687.42 428.18 689.36 428.41 690.33 428.52 C 695.85 429.28 701.42 429.69 706.91 430.61 C 709.45 431.04 711.48 433.08 712.32 435.46 C 713.73 439.41 714.73 443.49 715.94 447.50 C 716.31 448.84 716.70 450.19 717.09 451.54 C 717.69 453.58 718.37 455.59 719.02 457.62 C 719.68 459.78 720.15 461.99 720.62 464.20 C 719.64 465.16 718.47 465.98 717.03 465.65 C 712.36 465.43 707.78 464.45 703.14 464.04 C 693.23 462.72 683.27 461.75 673.38 460.32 C 670.65 460.03 668.72 457.83 667.70 455.44 C 666.05 449.54 664.08 443.75 662.38 437.87 C 661.28 433.97 659.58 430.13 659.73 426.00 L 659.71 425.19 Z" />
</g>
<g id="#eebaaaff">
<path fill="#eebaaa" opacity="1.00" d=" M 203.32 439.05 C 208.93 436.69 214.62 434.24 219.17 430.07 C 223.12 434.04 226.71 438.34 230.46 442.50 C 233.70 442.84 236.94 443.18 240.19 443.45 C 245.58 443.94 250.96 444.47 256.35 444.99 C 257.95 445.16 259.54 445.34 261.15 445.50 C 268.04 446.20 274.92 446.99 281.83 447.42 C 284.01 445.51 286.12 441.57 289.50 442.54 C 290.04 444.27 288.88 446.01 288.66 447.71 C 291.35 447.23 294.02 446.62 296.66 445.88 C 296.48 450.21 294.89 454.74 291.16 457.25 C 288.36 459.54 284.80 457.04 281.61 457.33 C 274.70 457.86 267.80 458.48 260.86 458.33 C 255.06 458.29 249.25 458.40 243.45 458.18 C 237.94 457.19 232.25 457.76 226.79 456.43 C 222.74 455.17 219.24 452.71 215.87 450.22 C 211.39 446.85 206.92 443.38 203.32 439.05 Z" />
</g>
<g id="#857e7fff">
<path fill="#857e7f" opacity="1.00" d=" M 715.94 447.50 C 717.41 447.60 718.89 447.70 720.38 447.79 C 719.28 449.03 718.18 450.28 717.09 451.54 C 716.70 450.19 716.31 448.84 715.94 447.50 Z" />
</g>
<g id="#6d6d71ff">
<path fill="#6d6d71" opacity="1.00" d=" M 727.43 452.70 C 729.96 451.89 732.25 450.50 734.15 448.64 C 732.31 453.82 727.33 456.78 723.87 460.79 C 722.77 461.91 721.71 463.08 720.62 464.20 C 720.15 461.99 719.68 459.78 719.02 457.62 C 719.74 457.57 721.18 457.48 721.90 457.43 C 723.47 455.59 724.92 453.34 727.43 452.70 Z" />
</g>
<g id="#00aeefff">
<path fill="#00aeef" opacity="1.00" d=" M 379.38 460.89 C 381.87 458.41 384.31 455.88 386.82 453.44 C 396.19 462.33 405.26 471.55 414.27 480.81 C 412.62 483.61 410.80 486.60 411.12 490.00 C 410.79 497.19 418.02 503.11 424.97 502.16 C 427.72 501.73 429.96 499.86 432.64 499.25 C 441.90 507.99 450.74 517.21 459.75 526.23 C 448.38 537.47 434.46 545.97 419.35 551.16 C 401.88 557.01 382.80 557.95 364.82 553.96 C 346.43 549.97 329.24 540.73 315.71 527.67 C 315.32 527.28 314.54 526.51 314.15 526.12 C 320.86 519.45 327.52 512.74 334.22 506.06 C 336.65 503.60 339.09 501.15 341.63 498.80 C 339.40 495.52 337.82 491.74 338.36 487.70 C 339.64 478.21 352.59 473.78 359.27 480.77 C 366.19 474.37 372.62 467.46 379.38 460.89 Z" />
</g>
<g id="#806470ba">
<path fill="#806470" opacity="0.73" d=" M 226.79 456.43 C 232.25 457.76 237.94 457.19 243.45 458.18 C 241.16 458.17 238.87 458.19 236.58 458.06 C 233.28 457.77 229.95 457.45 226.79 456.43 Z" />
</g>
<g id="#2399caff">
<path fill="#2399ca" opacity="1.00" d=" M 720.62 464.20 C 721.71 463.08 722.77 461.91 723.87 460.79 C 728.30 461.50 732.77 461.88 737.22 462.42 C 729.20 464.54 721.19 466.75 713.37 469.53 C 711.01 470.62 708.57 469.48 706.30 468.80 C 702.24 467.44 698.06 466.50 693.90 465.54 C 696.97 464.99 700.03 464.38 703.14 464.04 C 707.78 464.45 712.36 465.43 717.03 465.65 C 718.47 465.98 719.64 465.16 720.62 464.20 Z" />
<path fill="#2399ca" opacity="1.00" d=" M 771.82 464.85 C 771.96 467.83 771.11 470.82 768.81 472.84 C 763.23 479.07 754.34 479.64 747.51 483.80 C 745.27 482.82 743.02 481.89 740.84 480.82 C 749.28 478.35 758.07 476.34 765.58 471.57 C 768.24 469.95 770.26 467.51 771.82 464.85 Z" />
<path fill="#2399ca" opacity="1.00" d=" M 660.28 471.83 C 660.73 471.53 661.63 470.93 662.07 470.62 C 666.10 475.13 671.67 477.84 677.31 479.75 C 679.31 480.50 681.55 480.99 683.11 482.57 C 681.41 482.62 679.73 482.65 678.05 482.53 C 676.13 482.35 674.22 482.18 672.31 482.18 C 667.64 479.57 663.29 476.33 660.28 471.83 Z" />
<path fill="#2399ca" opacity="1.00" d=" M 695.69 490.53 C 699.76 489.58 703.77 488.19 707.97 487.95 C 712.49 488.19 716.84 489.59 721.26 490.52 C 712.79 491.63 704.16 491.59 695.69 490.53 Z" />
</g>
<g id="#754c29ff">
<path fill="#754c29" opacity="1.00" d=" M 636.75 474.89 C 637.29 472.47 640.00 471.80 641.85 470.67 C 642.98 471.32 644.13 471.97 645.28 472.64 C 642.66 473.71 640.17 475.09 638.14 477.08 C 640.55 478.79 643.34 479.82 646.19 480.55 C 643.60 482.16 641.01 483.78 638.42 485.39 C 637.85 481.89 636.98 478.43 636.75 474.89 Z" />
</g>
<g id="#3c2415ff">
<path fill="#3c2415" opacity="1.00" d=" M 638.14 477.08 C 640.17 475.09 642.66 473.71 645.28 472.64 C 647.59 473.98 649.85 475.43 652.09 476.90 C 650.10 478.08 648.15 479.32 646.19 480.55 C 643.34 479.82 640.55 478.79 638.14 477.08 Z" />
</g>
<g id="#939598ff">
<path fill="#939598" opacity="1.00" d=" M 459.75 526.23 C 471.21 515.07 479.77 500.99 484.82 485.84 C 492.54 493.97 501.98 501.00 506.71 511.48 C 511.01 520.28 511.84 530.37 510.39 539.96 C 511.66 542.35 511.96 546.33 514.90 547.11 C 514.62 547.54 514.07 548.41 513.79 548.84 C 515.61 557.34 512.22 566.01 506.26 572.08 C 502.80 575.12 499.14 578.21 494.62 579.51 C 489.05 581.10 482.87 580.94 477.59 578.42 C 475.20 577.25 472.59 576.51 469.93 577.09 C 457.79 578.77 445.24 574.81 435.74 567.23 C 430.02 562.13 424.80 556.53 419.35 551.16 C 434.46 545.97 448.38 537.47 459.75 526.23 Z" />
</g>
<g id="#27c9ffff">
<path fill="#27c9ff" opacity="1.00" d=" M 629.24 491.26 L 629.76 490.92 C 642.07 491.60 654.41 490.96 666.74 491.28 C 667.63 492.55 668.52 493.82 669.38 495.13 L 669.48 495.72 L 668.07 495.62 C 655.10 495.45 642.13 495.55 629.16 495.58 C 629.16 494.13 629.17 492.70 629.24 491.26 Z" />
<path fill="#27c9ff" opacity="1.00" d=" M 694.45 495.40 C 703.22 490.96 713.67 491.41 722.51 495.40 C 713.16 495.62 703.80 495.62 694.45 495.40 Z" />
<path fill="#27c9ff" opacity="1.00" d=" M 741.62 499.37 C 745.39 498.91 749.15 499.84 751.53 503.01 C 752.61 507.76 753.35 512.61 753.49 517.48 C 753.30 518.11 752.92 519.37 752.73 520.00 C 748.98 521.75 745.33 524.26 741.01 524.00 C 704.06 523.69 667.10 524.19 630.15 523.74 C 629.80 522.76 629.48 521.78 629.18 520.80 L 629.17 520.22 C 661.47 520.35 693.77 520.21 726.06 520.29 C 729.58 520.24 733.22 520.59 736.62 519.46 C 744.85 516.87 747.20 505.61 741.62 499.37 Z" />
</g>
<g id="#23b5e6ff">
<path fill="#23b5e6" opacity="1.00" d=" M 686.08 491.16 C 686.55 491.44 687.50 491.99 687.98 492.27 C 690.54 491.65 693.10 491.04 695.69 490.53 C 704.16 491.59 712.79 491.63 721.26 490.52 C 729.60 491.66 737.64 494.39 745.99 495.45 C 747.49 495.87 748.90 496.56 750.31 497.27 C 750.58 499.21 751.04 501.11 751.53 503.01 C 749.15 499.84 745.39 498.91 741.62 499.37 C 736.42 494.39 729.01 495.82 722.51 495.40 C 713.67 491.41 703.22 490.96 694.45 495.40 C 689.76 495.69 685.07 495.66 680.39 495.44 C 680.57 494.86 680.94 493.69 681.12 493.10 C 682.72 492.34 684.40 491.76 686.08 491.16 Z" />
</g>
<g id="#f3fafcff">
<path fill="#f3fafc" opacity="1.00" d=" M 675.62 512.23 C 676.13 506.39 678.23 500.85 680.39 495.44 C 685.07 495.66 689.76 495.69 694.45 495.40 C 703.80 495.62 713.16 495.62 722.51 495.40 C 729.01 495.82 736.42 494.39 741.62 499.37 C 747.20 505.61 744.85 516.87 736.62 519.46 C 733.22 520.59 729.58 520.24 726.06 520.29 C 693.77 520.21 661.47 520.35 629.17 520.22 C 629.26 514.62 629.14 509.03 628.98 503.44 C 629.04 500.81 629.16 498.20 629.16 495.58 C 642.13 495.55 655.10 495.45 668.07 495.62 C 668.32 502.44 669.46 509.19 670.34 515.95 C 671.94 516.00 674.55 517.56 675.26 515.32 C 675.42 514.29 675.54 513.26 675.62 512.23 Z" />
<path fill="#f3fafc" opacity="1.00" d=" M 612.03 538.77 C 650.99 538.56 689.96 538.67 728.92 538.68 C 736.18 538.46 742.69 544.72 742.84 551.96 C 743.63 559.68 736.62 566.72 729.00 566.64 C 690.03 566.64 651.06 566.54 612.08 566.70 C 612.04 557.39 612.11 548.08 612.03 538.77 Z" />
</g>
<g id="#dbe1e2ff">
<path fill="#dbe1e2" opacity="1.00" d=" M 668.07 495.62 L 669.48 495.72 C 670.37 501.27 671.03 506.85 671.83 512.42 C 673.08 512.36 674.35 512.30 675.62 512.23 C 675.54 513.26 675.42 514.29 675.26 515.32 C 674.55 517.56 671.94 516.00 670.34 515.95 C 669.46 509.19 668.32 502.44 668.07 495.62 Z" />
</g>
<g id="#39dafaff">
<path fill="#39dafa" opacity="1.00" d=" M 760.15 515.01 C 769.88 508.82 779.66 502.72 789.47 496.65 C 791.37 496.65 793.28 496.64 795.20 496.64 L 796.15 496.66 C 796.60 496.67 797.50 496.69 797.95 496.69 C 799.31 496.80 800.67 496.94 802.04 497.12 C 799.33 497.98 797.50 500.14 796.81 502.87 C 793.57 511.46 789.47 519.69 786.28 528.29 C 783.84 534.86 780.26 540.97 778.30 547.73 C 778.75 547.88 779.64 548.20 780.09 548.35 C 770.59 554.42 760.95 560.27 751.45 566.33 C 754.14 562.34 757.04 558.07 756.78 553.03 C 757.29 543.85 750.01 535.79 741.32 533.79 C 740.21 533.34 739.12 532.89 738.04 532.43 C 739.00 530.06 740.15 527.79 741.51 525.63 C 739.33 525.32 737.14 525.01 734.94 524.98 C 722.63 524.87 710.32 524.50 698.02 524.75 C 675.14 524.77 652.26 524.60 629.38 524.62 C 629.34 524.25 629.26 523.53 629.22 523.16 C 629.21 522.57 629.19 521.39 629.18 520.80 C 629.48 521.78 629.80 522.76 630.15 523.74 C 667.10 524.19 704.06 523.69 741.01 524.00 C 745.33 524.26 748.98 521.75 752.73 520.00 C 754.39 521.20 756.34 521.76 758.39 521.79 C 758.97 519.53 759.57 517.27 760.15 515.01 Z" />
</g>
<g id="#2ed3faff">
<path fill="#2ed3fa" opacity="1.00" d=" M 802.04 497.12 L 802.52 497.17 C 804.24 497.67 805.96 498.31 807.58 499.14 C 812.12 502.42 815.84 507.29 816.35 513.03 C 817.30 519.97 814.08 527.45 808.00 531.08 C 798.57 536.63 789.40 542.61 780.09 548.35 C 779.64 548.20 778.75 547.88 778.30 547.73 C 780.26 540.97 783.84 534.86 786.28 528.29 C 789.47 519.69 793.57 511.46 796.81 502.87 C 797.50 500.14 799.33 497.98 802.04 497.12 Z" />
</g>
<g id="#e6e7e8ff">
<path fill="#e6e7e8" opacity="1.00" d=" M 807.58 499.14 C 823.82 500.53 840.00 503.62 855.48 508.82 C 865.19 512.39 875.38 516.68 881.95 525.04 C 885.69 529.67 885.89 536.72 882.27 541.48 C 877.16 548.32 869.22 552.23 861.49 555.36 C 848.79 560.27 835.35 562.96 821.90 564.84 C 808.62 566.89 796.12 572.26 784.38 578.64 C 770.56 586.11 757.46 594.80 743.89 602.69 C 726.48 612.93 708.23 621.93 688.89 627.91 C 666.02 635.11 641.92 638.06 617.98 637.53 C 598.47 636.91 578.81 635.46 559.89 630.41 C 541.78 625.62 525.33 616.33 507.52 610.66 C 475.38 600.10 441.54 596.44 408.03 593.20 C 401.13 592.10 393.82 591.72 387.52 588.44 C 385.54 587.57 385.71 584.66 387.50 583.69 C 392.27 580.25 398.02 578.66 403.50 576.76 C 410.49 574.57 417.51 572.47 424.66 570.89 C 429.52 574.90 434.22 579.26 440.11 581.77 C 448.01 585.51 456.99 586.68 465.64 585.54 C 468.70 585.00 471.39 586.81 474.17 587.75 C 481.06 590.30 489.01 589.01 495.16 585.17 C 499.55 581.50 504.02 577.48 506.26 572.08 C 512.22 566.01 515.61 557.34 513.79 548.84 C 514.07 548.41 514.62 547.54 514.90 547.11 C 521.45 544.56 528.44 542.49 533.95 537.95 C 535.98 536.63 536.66 533.26 534.53 531.73 C 530.49 528.66 525.32 526.15 523.53 521.05 C 522.64 517.84 525.06 515.15 527.53 513.52 C 531.58 510.83 536.33 509.45 540.95 508.10 C 554.51 504.58 568.45 503.00 582.35 501.54 C 588.29 501.25 594.25 499.77 600.20 500.77 C 609.59 503.09 619.40 502.35 628.98 503.44 C 629.14 509.03 629.26 514.62 629.17 520.22 L 629.18 520.80 C 629.19 521.39 629.21 522.57 629.22 523.16 C 623.77 526.67 618.17 529.96 612.74 533.51 C 611.76 534.97 612.23 537.06 612.03 538.77 C 612.11 548.08 612.04 557.39 612.08 566.70 C 612.09 568.17 612.11 569.65 612.14 571.13 C 628.76 571.72 645.41 571.20 662.04 571.38 C 684.70 571.37 707.35 571.38 730.00 571.38 C 733.99 571.34 738.03 571.64 741.99 570.98 C 745.53 570.36 748.53 568.29 751.45 566.33 C 760.95 560.27 770.59 554.42 780.09 548.35 C 789.40 542.61 798.57 536.63 808.00 531.08 C 814.08 527.45 817.30 519.97 816.35 513.03 C 815.84 507.29 812.12 502.42 807.58 499.14 Z" />
</g>
<g id="#45c5e3ff">
<path fill="#45c5e3" opacity="1.00" d=" M 757.76 516.24 C 758.36 515.93 759.55 515.32 760.15 515.01 C 759.57 517.27 758.97 519.53 758.39 521.79 C 756.34 521.76 754.39 521.20 752.73 520.00 C 752.92 519.37 753.30 518.11 753.49 517.48 C 755.04 517.51 756.82 517.81 757.76 516.24 Z" />
</g>
<g id="#70eafcff">
<path fill="#70eafc" opacity="1.00" d=" M 612.74 533.51 C 618.17 529.96 623.77 526.67 629.22 523.16 C 629.26 523.53 629.34 524.25 629.38 524.62 C 652.26 524.60 675.14 524.77 698.02 524.75 C 696.76 527.32 695.78 530.01 694.99 532.76 C 698.79 532.86 702.60 533.17 706.37 533.72 C 688.94 534.68 671.45 533.79 654.00 533.90 C 640.24 533.71 626.48 534.09 612.74 533.51 Z" />
</g>
<g id="#57e3fbff">
<path fill="#57e3fb" opacity="1.00" d=" M 698.02 524.75 C 710.32 524.50 722.63 524.87 734.94 524.98 C 737.14 525.01 739.33 525.32 741.51 525.63 C 740.15 527.79 739.00 530.06 738.04 532.43 C 739.12 532.89 740.21 533.34 741.32 533.79 C 729.68 534.27 718.02 533.80 706.37 533.72 C 702.60 533.17 698.79 532.86 694.99 532.76 C 695.78 530.01 696.76 527.32 698.02 524.75 Z" />
</g>
<g id="#9ffbfbff">
<path fill="#9ffbfb" opacity="1.00" d=" M 612.03 538.77 C 612.23 537.06 611.76 534.97 612.74 533.51 C 626.48 534.09 640.24 533.71 654.00 533.90 C 671.45 533.79 688.94 534.68 706.37 533.72 C 718.02 533.80 729.68 534.27 741.32 533.79 C 750.01 535.79 757.29 543.85 756.78 553.03 C 757.04 558.07 754.14 562.34 751.45 566.33 C 748.53 568.29 745.53 570.36 741.99 570.98 C 738.03 571.64 733.99 571.34 730.00 571.38 C 707.35 571.38 684.70 571.37 662.04 571.38 C 645.41 571.20 628.76 571.72 612.14 571.13 C 612.11 569.65 612.09 568.17 612.08 566.70 C 651.06 566.54 690.03 566.64 729.00 566.64 C 736.62 566.72 743.63 559.68 742.84 551.96 C 742.69 544.72 736.18 538.46 728.92 538.68 C 689.96 538.67 650.99 538.56 612.03 538.77 Z" />
</g>
<g id="#826768e2">
<path fill="#826768" opacity="0.89" d=" M 142.12 562.36 C 143.88 563.33 145.79 564.01 147.76 564.43 C 146.99 568.09 146.47 571.81 146.49 575.56 C 146.14 575.35 145.43 574.92 145.08 574.71 C 144.47 574.93 143.26 575.36 142.65 575.58 C 141.49 571.26 141.49 566.76 142.12 562.36 M 142.64 563.67 C 142.07 567.27 142.29 570.92 142.85 574.51 C 143.63 574.44 145.20 574.29 145.98 574.22 C 146.25 571.10 146.59 568.00 146.95 564.91 C 145.51 564.48 144.08 564.07 142.64 563.67 Z" />
</g>
<g id="#cfcfd0ff">
<path fill="#cfcfd0" opacity="1.00" d=" M 435.74 567.23 C 445.24 574.81 457.79 578.77 469.93 577.09 C 472.59 576.51 475.20 577.25 477.59 578.42 C 482.87 580.94 489.05 581.10 494.62 579.51 C 499.14 578.21 502.80 575.12 506.26 572.08 C 504.02 577.48 499.55 581.50 495.16 585.17 C 489.01 589.01 481.06 590.30 474.17 587.75 C 471.39 586.81 468.70 585.00 465.64 585.54 C 456.99 586.68 448.01 585.51 440.11 581.77 C 434.22 579.26 429.52 574.90 424.66 570.89 L 424.42 570.69 C 428.19 569.93 431.91 568.93 435.64 567.96 L 435.74 567.23 Z" />
</g>
</svg>
